<svg width="179" height="32" viewBox="0 0 179 32" fill="none" xmlns="http://www.w3.org/2000/svg">
<path d="M48.967 11.4472V15.3766H55.5788V18.0119H48.967V24.3648H45.72V8.83539H57.3435V11.4472H48.967Z" fill="#555555"/>
<path d="M73.1624 18.2472C73.1624 20.3491 72.5977 21.9334 71.4683 23.0001C70.3546 24.0668 68.7075 24.6001 66.5271 24.6001C64.3467 24.6001 62.6918 24.0668 61.5624 23.0001C60.4487 21.9334 59.8918 20.3491 59.8918 18.2472V8.83539H63.1389V18.106C63.1389 19.4079 63.4134 20.3726 63.9624 21.0001C64.5271 21.6275 65.382 21.9413 66.5271 21.9413C67.6722 21.9413 68.5193 21.6275 69.0683 21.0001C69.6173 20.3726 69.8918 19.4079 69.8918 18.106V8.83539H73.1624V18.2472Z" fill="#555555"/>
<path d="M88.9235 21.753V24.3648H76.947V8.83539H88.594V11.4472H80.194V15.306H86.8058V17.8001H80.194V21.753H88.9235Z" fill="#555555"/>
<path d="M103.272 21.753V24.3648H91.8367V8.83539H95.0838V21.753H103.272Z" fill="#555555"/>
<path d="M115.103 11.4472H109.903V24.3648H106.655V11.4472H101.432V8.83539H115.103V11.4472Z" fill="#555555"/>
<path d="M123.873 18.4119H120.956V24.3648H117.756V8.83539H124.603C126.375 8.83539 127.756 9.25892 128.744 10.106C129.748 10.9374 130.25 12.1138 130.25 13.6354C130.25 14.7491 129.975 15.6825 129.426 16.4354C128.877 17.1883 128.093 17.7295 127.073 18.0589L131.168 24.3648H127.521L123.873 18.4119ZM120.956 15.9413H124.179C125.121 15.9413 125.811 15.7609 126.25 15.4001C126.705 15.0236 126.932 14.4511 126.932 13.6824C126.932 12.9138 126.705 12.3491 126.25 11.9883C125.811 11.6119 125.121 11.4236 124.179 11.4236H120.956V15.9413Z" fill="#555555"/>
<path d="M142.572 20.5766H136.596L135.325 24.3648H132.007L137.678 8.83539H141.56L147.231 24.3648H143.866L142.572 20.5766ZM141.772 18.1766L140.313 13.8001L139.607 11.4472H139.56L138.901 13.753L137.396 18.1766H141.772Z" fill="#555555"/>
<path d="M162.254 20.0825C161.799 21.5726 160.991 22.7021 159.83 23.4707C158.67 24.2236 157.281 24.6001 155.666 24.6001C154.144 24.6001 152.819 24.2785 151.689 23.6354C150.56 22.9923 149.689 22.0746 149.077 20.8825C148.481 19.6746 148.183 18.2472 148.183 16.6001C148.183 14.953 148.481 13.5334 149.077 12.3413C149.689 11.1334 150.552 10.2079 151.666 9.5648C152.795 8.92167 154.113 8.6001 155.619 8.6001C157.234 8.6001 158.599 8.93735 159.713 9.61186C160.842 10.2864 161.619 11.2903 162.042 12.6236L159.101 13.8707C158.85 12.9452 158.458 12.2785 157.925 11.8707C157.391 11.4628 156.67 11.2589 155.76 11.2589C154.442 11.2589 153.407 11.7217 152.654 12.6472C151.917 13.5726 151.548 14.8903 151.548 16.6001C151.548 18.3099 151.909 19.6275 152.63 20.553C153.352 21.4785 154.372 21.9413 155.689 21.9413C157.587 21.9413 158.779 21.0236 159.266 19.1883L162.254 20.0825Z" fill="#555555"/>
<path d="M170.48 17.2589L168.268 19.7766V24.3648H165.021V8.83539H168.268V16.2001L174.645 8.83539H178.41L172.833 15.1648L178.598 24.3648H174.88L170.48 17.2589Z" fill="#555555"/>
<rect opacity="0.25" x="1" y="1" width="30" height="30" rx="6" stroke="#2F80ED" stroke-width="2"/>
<rect opacity="0.65" x="5" y="5" width="22" height="22" rx="7" stroke="#2F80ED" stroke-width="2"/>
<rect x="9" y="9" width="14" height="14" rx="7" stroke="#2F80ED" stroke-width="2"/>
<rect x="12" y="12" width="8" height="8" rx="4" fill="#F2994A"/>
</svg>
